<?xml version="1.0" encoding="UTF-8" standalone="no"?><!DOCTYPE svg PUBLIC "-//W3C//DTD SVG 1.1//EN" "http://www.w3.org/Graphics/SVG/1.1/DTD/svg11.dtd"><svg width="100%" height="100%" viewBox="0 0 103 111" version="1.1" xmlns="http://www.w3.org/2000/svg" xmlns:xlink="http://www.w3.org/1999/xlink" xml:space="preserve" xmlns:serif="http://www.serif.com/" style="fill-rule:evenodd;clip-rule:evenodd;stroke-linecap:round;stroke-linejoin:round;stroke-miterlimit:1.5;"><g id="Layer1"><g><g><path d="M60.018,1.681c-10.413,13.469 -24.549,30.088 -19.648,49.337c3.094,12.15 11.767,23.751 10.79,36.879c-0.807,10.837 -12.185,20.752 -22.343,16.779c-4.926,-1.927 -9.43,-4.203 -13.579,-7.709c-12.939,-10.937 -16.333,-28.625 -11.879,-45.186c2.23,-8.292 4.632,-16.353 9.276,-23.487c5.846,-8.982 14.582,-15.974 23.718,-20.602c7.656,-3.879 15.141,-6.986 23.665,-6.011Z" style="fill:#b7ddf1;stroke:#000;stroke-width:3px;"/><path d="M26.614,61.866c-1.78,-0.627 -2.976,2.33 -3.033,3.491c-0.325,6.717 7.066,7.458 10.281,3.218c2.185,-2.881 1.162,-8.631 0.831,-11.631c-0.768,-6.954 -2.432,-13.814 -0.941,-20.794c0.934,-4.368 2.884,-11.539 4.931,-15.775c1.059,-2.193 2.33,-4.271 3.711,-6.246c0.59,-0.844 3.089,-2.496 2.162,-2.151c-22.309,8.311 -36.161,37.162 -30.867,61.509" style="fill:none;stroke:#000;stroke-width:2.5px;"/><path d="M13.666,73.487c1.848,7.333 3.472,13.293 10.344,18.268c1.702,1.233 5.801,2.753 7.764,3.391c2.433,0.79 6.546,1.319 8.342,-0.186c6.749,-5.656 4.448,-19.832 -4.313,-21.685c-4.082,-0.864 -6.864,3.148 -7.728,6.88c-0.213,0.921 0.029,2.483 0.598,3.233c1.906,2.514 5.751,2.036 6.474,-1.41" style="fill:none;stroke:#000;stroke-width:2.5px;"/></g><g><path d="M47.326,108.898c15.82,-6.257 34.399,-12.916 44.077,-27.888c3.67,-5.677 6.411,-9.968 7.978,-16.499c1.242,-5.173 1.391,-12.747 1.657,-18.078c0.713,-14.258 -9.741,-25.962 -19.068,-35.736c-2.998,-3.142 -10.441,-9.809 -11.426,-8.84c-2.641,2.598 -4.977,6.276 -7.372,10.032c-3.806,5.968 -7.498,11.894 -8.527,16.75c-1.6,7.551 -2.144,12.118 -1.367,19.961c0.655,6.612 3.195,12.577 5.009,18.878c4.17,14.479 4.288,33.022 -10.961,41.42Z" style="fill:#c3dc90;stroke:#000;stroke-width:3px;"/><path d="M55.527,104.103c3.277,-1.405 5.856,-4.614 7.846,-7.469c4.835,-6.938 7.407,-14.794 9.802,-22.834c0.883,-2.966 1.676,-6.126 1.76,-9.239c0.027,-0.994 0.2,-2.493 -0.427,-3.382c-3.686,-5.226 -14.835,-0.163 -14.181,5.902c0.392,3.637 5.299,6.462 7.514,2.496" style="fill:none;stroke:#000;stroke-width:2.5px;"/><path d="M75.568,63.814c0.449,-0.793 0.901,-1.586 1.359,-2.374c2.307,-3.974 6.072,-9.619 11.467,-7.999c0.958,0.288 1.804,0.718 2.647,1.255c0.941,0.6 1.845,1.355 2.485,2.283c2.074,3.009 2.514,7.83 1.011,11.147c-1.58,3.486 -5.478,5.401 -8.941,3.133c-1.69,-1.107 -2.583,-3.761 -1.468,-5.541c1.218,-1.942 4.019,-2.181 5.379,-0.323" style="fill:none;stroke:#000;stroke-width:2.5px;"/><path d="M75.657,61.189c0,-9.213 -0.425,-18.678 -4.404,-27.157c-1.743,-3.714 -4.67,-7.725 -9.029,-8.447c-6.051,-1.003 -11.227,7.487 -6.271,11.848c2.489,2.191 7.528,1.565 7.198,-2.438" style="fill:none;stroke:#000;stroke-width:2.5px;"/><path d="M72.487,36.253c-0,-6.462 0.79,-13.405 7.007,-16.907c1.083,-0.61 2.281,-0.975 3.498,-1.212c1.835,-0.357 4.16,-0.252 5.796,0.765c1.769,1.099 2.936,3.143 3.826,4.957c0.801,1.633 1.329,3.46 1.464,5.279c0.1,1.356 -0.101,2.765 -0.569,4.043c-1.242,3.389 -6.504,5.338 -9.537,3.064c-2.412,-1.809 -2.753,-5.76 -0.254,-7.57" style="fill:none;stroke:#000;stroke-width:2.5px;"/><path d="M70.963,32.745c-1.595,-7.694 -3.718,-22.402 -0.305,-29.867" style="fill:none;stroke:#000;stroke-width:2.5px;"/></g></g></g></svg>