<?xml version="1.0" encoding="UTF-8" standalone="no"?><!DOCTYPE svg PUBLIC "-//W3C//DTD SVG 1.1//EN" "http://www.w3.org/Graphics/SVG/1.1/DTD/svg11.dtd"><svg width="100%" height="100%" viewBox="0 0 102 102" version="1.1" xmlns="http://www.w3.org/2000/svg" xmlns:xlink="http://www.w3.org/1999/xlink" xml:space="preserve" xmlns:serif="http://www.serif.com/" style="fill-rule:evenodd;clip-rule:evenodd;stroke-linecap:round;stroke-linejoin:round;stroke-miterlimit:1.5;"><g id="Layer1"><g><g><path d="M48.427,38.27l-0.008,0.047c-0.13,0.894 -0.056,2.14 0.151,3.019c0.21,0.892 0.606,1.584 1.027,2.095l-0.103,1.237l-0.018,0.205c-0.397,1.067 -0.605,2.248 -0.605,2.86c0,0.092 0.003,0.873 0.082,1.369c-0.717,0.722 -1.157,1.777 -1.149,3.23c0.008,1.561 1.703,5.219 1.899,5.544c1.568,2.611 3.226,5.704 5.15,8.082c0.795,0.983 2.041,1.706 2.685,2.814c0.647,1.114 0.463,2.339 0.747,3.583c1.012,4.43 0.659,7.952 -0.37,12.523c-0.247,1.095 -0.281,2.216 -0.556,3.291c-0.497,0.355 -0.817,0.737 -1.027,1.044c-0.897,1.312 -0.911,2.558 -0.471,3.668c-1.041,0.123 -2.004,0.338 -2.765,0.669c-2.025,0.88 -2.954,3.238 -2.074,5.263c0.881,2.024 3.239,2.953 5.264,2.073c0.505,-0.22 1.274,-0.125 1.983,-0.18c1.193,-0.093 2.324,-0.272 3.191,-0.596c2.017,-0.752 3.556,-2.327 5.453,-3.351c1.839,-0.992 3.804,-1.321 5.528,-2.632c6.328,-4.809 12.956,-9.587 17.469,-16.349c4.178,-6.26 6.902,-13.908 8.794,-21.124c1.159,-4.418 1.432,-9.307 1.432,-13.873c0,-0.847 0.202,-2.296 0.091,-3.444c-0.117,-1.214 -0.506,-2.255 -1.048,-3.024l-0.087,-0.113c0.033,-0.239 0.048,-0.47 0.04,-0.682c-0.116,-3.034 -2.472,-4.062 -4.101,-4.062c-1.088,-0 -2.08,0.254 -3.022,0.667c-0.168,0.074 -0.378,0.174 -0.596,0.283l-2.089,-0c-4.218,-0 -8.437,0.145 -12.648,0.145c-1.051,-0 -3.87,-0.147 -5.856,0.191c-0.913,0.155 -1.714,0.432 -2.382,0.776c-0.22,-0.16 -0.453,-0.306 -0.697,-0.439c-1.354,-0.739 -3.055,-0.98 -4.546,-1.266c-2.257,-0.433 -4.408,-0.272 -6.67,-0.439c-2.456,-0.182 -5.166,-0.345 -7.078,0.72c-1.928,1.075 -2.621,3.513 -1.546,5.441c0.15,0.27 0.327,0.515 0.526,0.735Zm31.48,4.599c-0.078,0.064 -0.155,0.132 -0.231,0.202c-0.307,0.285 -0.592,0.607 -0.857,0.958l1.088,-1.16Z" style="fill:#e6a87c;"/><path d="M55.005,28.069c-1.39,-0.284 -2.797,-0.505 -4.209,-0.505c-2.208,0 -4,1.793 -4,4c-0,2.208 1.792,4 4,4c1.51,0 3.002,0.42 4.47,0.746c0.478,0.107 2.343,0.337 3.287,0.192c1.361,-0.21 2.236,-0.906 2.729,-1.494c0.435,-0.517 0.76,-1.105 0.979,-1.75c0.705,0.899 1.949,1.762 3.596,1.98c1.246,0.164 2.684,-0.036 3.478,-0.344c0.683,-0.265 1.189,-0.633 1.545,-0.981c0.173,-0.167 0.339,-0.365 0.496,-0.585c0.183,0.003 0.367,0.005 0.551,0.005c2.822,0 6.039,0.15 8.817,0.777c0.369,0.28 1.401,1.049 1.919,1.337c1.041,0.577 2.059,0.763 2.92,0.703c2.262,-0.159 3.082,-1.486 3.501,-2.478c0.268,-0.635 0.396,-1.358 0.275,-2.174c-0.041,-0.284 -0.557,-1.18 -0.968,-1.857c-0.221,-0.799 -0.254,-1.644 -0.555,-2.417c-0.893,-2.293 -1.227,-4.581 -2.434,-6.786c-0.552,-1.009 -0.861,-2.128 -1.244,-3.224c-0.597,-1.709 -1.312,-3.377 -2.476,-4.873c-0.774,-0.996 -1.893,-1.887 -3.161,-2.671c-1.058,-0.655 -2.275,-1.201 -3.076,-1.904c-0.314,-0.277 -0.472,-0.684 -0.682,-1.025c-0.442,-0.717 -0.905,-1.376 -1.426,-1.905c-1.446,-1.466 -3.251,-2.381 -6.184,-1.615c-1.328,0.347 -2.595,1.189 -3.648,2.452c-1.293,1.549 -2.273,3.93 -2.887,5.145c-2.026,4.014 -3.94,8.341 -4.685,12.811c-0.249,1.497 -0.612,2.96 -0.928,4.44Z" style="fill:#e6a87c;"/><path d="M72.386,61.338c-0.625,-3.732 -1.201,-9.476 -3.657,-12.529c-0.887,-1.103 -2.032,-1.992 -3.101,-2.909c-1.075,-0.922 -2.754,-1.785 -4.223,-1.808c-3.353,-0.053 -4.981,2.16 -5.793,4.501c-0.684,1.973 -0.726,5.189 0.632,6.965c1.534,2.005 4.553,1.735 5.424,-0.688" style="fill:none;stroke:#000;stroke-width:2.5px;"/><path d="M69.21,49.4c-0.102,-1.641 -0.594,-4.27 -1.1,-5.825c-0.982,-3.02 -2.461,-5.913 -3.019,-9.057c-0.671,-3.785 0.44,-8.2 3.706,-10.498c0.936,-0.659 2.048,-1.169 3.183,-1.354c2.198,-0.36 4.916,0.412 6.38,2.168c2.258,2.708 2.022,8.181 -1.006,10.323c-1.035,0.732 -2.589,1.285 -3.841,0.831c-1.851,-0.67 -1.926,-2.904 -0.726,-4.16" style="fill:none;stroke:#000;stroke-width:2.5px;"/><path d="M49.45,99.201c2.095,-1.227 5.263,-1.459 8.687,-3.342c2.085,-1.147 4.894,-3.85 5.79,-5.028c3.945,-5.194 6.575,-13.198 7.484,-19.516c1.044,-7.253 -0.101,-14.206 5.59,-19.873c1.101,-1.096 3.365,-1.956 4.934,-2.027c4.475,-0.201 6.934,1.184 8.347,5.208c0.67,1.907 0.716,3.604 0.333,5.752c-0.295,1.661 -0.807,3.686 -2.036,4.921c-3.88,3.9 -9.145,-1.3 -7.383,-5.644" style="fill:none;stroke:#000;stroke-width:2.5px;"/><path d="M47.964,100.168c3.425,0.038 6.542,0.292 9.926,-0.348c15.226,-2.881 29.12,-13.65 35.532,-27.796c3.857,-8.508 6.536,-21.021 6.376,-27.277l0.007,-0c-0.175,-3.608 -1.497,-10.267 -3.283,-13.908c-0.292,-0.594 -1.515,-0.595 -1.976,-0.356c-1.027,0.531 -3.914,4.06 -4.933,1.616c-2.614,-6.267 -2.56,-13.661 -7.291,-18.924c-3.767,-4.188 -7.122,-7.066 -11.75,-10.181c-0.818,-0.55 -1.904,-1.98 -2.643,-1.327c-2.346,2.075 -3.372,5.282 -4.913,8.008c-2.28,4.034 -4.397,8.346 -5.714,12.816c-0.523,1.776 -0.754,3.624 -1.142,5.433c-0.04,0.187 -0.175,1.395 -0.712,1.391c0,0 1.182,0.575 0,0.028c-0.007,-0.003 -5.853,-3.492 -5.949,-3.393c-4.733,4.865 -1.29,9.972 -0.905,15.612c0.077,1.124 -0.211,3.208 -0.224,4.272c-0.012,0.931 -0.018,2.799 -0.012,3.562c0.036,5.188 0.575,5.865 3.058,9.727c2.134,3.318 7,11.053 7.367,15.424c0.461,5.492 -0.295,13.292 -3.448,18.065c-2.93,4.435 -4.204,3.231 -7.371,7.556Z" style="fill:none;stroke:#000;stroke-width:3px;"/></g><g><path d="M60.018,2.493c-10.413,12.498 -24.549,27.917 -19.648,45.776c3.094,11.274 11.767,22.038 10.79,34.217c-0.807,10.055 -12.185,19.255 -22.343,15.569c-4.926,-1.788 -9.43,-3.9 -13.579,-7.153c-12.939,-10.147 -16.333,-26.559 -11.879,-41.925c2.23,-7.693 4.632,-15.172 9.276,-21.791c5.846,-8.334 14.582,-14.821 23.718,-19.116c7.656,-3.598 15.141,-6.481 23.665,-5.577Z" style="fill:#b7ddf1;stroke:#000;stroke-width:3px;"/><path d="M26.614,58.335c-1.78,-0.582 -2.976,2.161 -3.033,3.239c-0.325,6.231 7.066,6.919 10.281,2.985c2.185,-2.673 1.162,-8.008 0.831,-10.791c-0.768,-6.452 -2.432,-12.817 -0.941,-19.293c0.934,-4.053 2.884,-10.706 4.931,-14.637c1.059,-2.034 2.33,-3.963 3.711,-5.794c0.59,-0.784 3.089,-2.317 2.162,-1.996c-22.309,7.71 -36.161,34.48 -30.867,57.068" style="fill:none;stroke:#000;stroke-width:2.5px;"/><path d="M13.666,69.116c1.848,6.804 3.472,12.334 10.344,16.951c1.702,1.143 5.801,2.554 7.764,3.146c2.433,0.733 6.546,1.223 8.342,-0.173c6.749,-5.248 4.448,-18.4 -4.313,-20.12c-4.082,-0.802 -6.864,2.921 -7.728,6.384c-0.213,0.854 0.029,2.303 0.598,2.999c1.906,2.332 5.751,1.889 6.474,-1.308" style="fill:none;stroke:#000;stroke-width:2.5px;"/></g></g></g></svg>