<?xml version="1.0" encoding="UTF-8" standalone="no"?><!DOCTYPE svg PUBLIC "-//W3C//DTD SVG 1.1//EN" "http://www.w3.org/Graphics/SVG/1.1/DTD/svg11.dtd"><svg width="100%" height="100%" viewBox="0 0 94 97" version="1.1" xmlns="http://www.w3.org/2000/svg" xmlns:xlink="http://www.w3.org/1999/xlink" xml:space="preserve" xmlns:serif="http://www.serif.com/" style="fill-rule:evenodd;clip-rule:evenodd;stroke-linecap:round;stroke-linejoin:round;stroke-miterlimit:1.5;"><g id="Layer1"><g><path d="M61.02,21.874c0.036,0.085 -0.866,-0.297 -0.939,-0.335c-0.699,-0.367 -0.699,-0.408 -1.569,-0.779c-2.165,-0.924 -4.412,-1.652 -6.67,-2.31c-2.32,-0.676 -4.478,-1.635 -6.844,-2.186c-4.13,-0.963 -10.09,-0.799 -14.064,0.362c-4.529,1.324 -8.834,3.356 -12.407,6.504c-2.328,2.052 -3.329,5.346 -4.828,7.974c-1.064,1.865 -2.334,3.662 -3.205,5.63c-2.066,4.67 -2.879,9.993 -3.224,15.038c-0.126,1.847 -0.457,3.968 -0.185,5.815c0.243,1.648 2.67,1.795 3.862,2.141c0.583,0.17 1.212,0.895 1.526,0.155c0.481,-1.134 0.544,-2.443 0.854,-3.632c0.654,-2.513 1.548,-4.92 2.039,-7.49c0.448,-2.342 0.493,-4.684 1.199,-6.981c1.192,-3.881 2.895,-7.021 4.822,-10.526c1.008,-1.835 2.17,-3.859 4.021,-4.971c3.072,-1.845 6.733,-1.964 9.998,-3.149c2.946,-1.069 5.637,-2.043 8.758,-2.365c0.848,-0.087 2.038,-0.399 2.879,-0.157c0.399,0.114 -0.872,1.078 -0.912,1.098c-1.045,0.52 -2.345,0.619 -3.454,0.941c-3.523,1.022 -6.934,2.784 -10.15,4.517c-2.724,1.467 -6.034,3.173 -8.18,5.498c-1.084,1.175 -1.563,2.77 -2.378,4.118c-1.182,1.956 -2.72,3.507 -3.601,5.681c-1.347,3.321 -1.548,7.178 -2.105,10.693c-0.908,5.719 -1.175,11.456 -1.175,17.235c-0,1.657 0.069,3.236 0.329,4.873c0.037,0.236 0.653,1.867 0.543,2.095c-0.091,0.188 -0.416,-0.091 -0.597,-0.197c-0.835,-0.486 -1.607,-1.156 -2.15,-1.962c-1.336,-1.987 -1.499,-4.487 -2.94,-6.5c-0.716,-0.999 -1.639,-1.909 -2.169,-3.033c-0.045,-0.095 -0.369,-0.959 -0.239,-1.016c0.94,-0.417 1.518,2.725 1.809,3.24c0.918,1.621 2.222,2.979 3.253,4.526c0.931,1.398 1.618,2.95 2.753,4.208c1.479,1.639 3.635,1.944 5.685,2.376c0.63,0.133 2.914,0.191 2.869,0.191" style="fill:none;stroke:#dbeef9;stroke-width:11px;"/><path d="M20.291,66.635c0,2.721 3.682,6.389 5.324,8.209c1.361,1.509 2.545,3.261 4.239,4.436c2.35,1.632 5.335,2.212 8.044,2.967c3.878,1.081 8.051,2.833 12.178,2.157c2.434,-0.399 4.882,-1.834 7.134,-2.772c1.711,-0.714 3.943,-2.528 5.143,-4.101c3.806,-4.986 7.211,-9.998 6.054,-16.177c-0.525,-2.798 -1.881,-5.095 -2.257,-7.913c-0.091,-0.678 -5.808,-2.43 -5.391,-3.128c1.831,-3.062 11.09,-4.918 12.329,-8.424c0.629,-1.782 0.957,-3.787 0.982,-5.675c0.006,-0.438 0.201,-1.341 -0.038,-1.739c-0.551,-0.919 -1.547,-1.58 -1.975,-2.512c-0.238,-0.518 -0.202,-0.46 -0.453,-0.927c-0.075,-0.139 -0.378,-0.453 -0.225,-0.415c0.501,0.123 0.998,1.559 1.334,1.964c1.589,1.915 3.779,3.621 5.36,5.534c1.755,2.125 4.332,3.572 5.575,6.105c1.361,2.772 0.582,6.353 0.251,9.224c-0.761,6.599 -2.362,12.737 -6.385,18.171c-2.135,2.884 -5.446,4.793 -7.481,7.714c-0.143,0.205 -0.002,-0.505 0.066,-0.744c0.176,-0.615 0.429,-1.124 0.739,-1.696c1.012,-1.864 2.02,-3.647 2.811,-5.624c2.155,-5.386 3.164,-10.95 3.89,-16.668c0.311,-2.451 0.75,-4.763 0.75,-7.244l0,-1.335c0,-0.121 0.101,-0.408 -0.012,-0.364c-0.723,0.284 -1.471,1.389 -2.007,1.91c-1.713,1.668 -2.748,3.175 -3.577,5.452c-2.096,5.757 -1.528,11.59 -1.528,17.648c0,2.216 -0.839,6.413 0.371,8.401c0.218,0.358 1.043,-0.274 1.215,-0.367c1.182,-0.637 2.174,-1.308 3.518,-1.624c1.832,-0.432 7.11,-9.284 6.882,-9.178c-1.304,0.607 -2.063,3.861 -2.918,4.875c-2.728,3.235 -4.578,6.381 -7.71,9.264c-3.628,3.34 -9.506,4.536 -14.08,5.606c-2.903,0.679 -5.73,1.713 -8.645,2.331c-3.118,0.661 -6.398,0.259 -9.502,-0.207c-3.676,-0.551 -7.03,-1.059 -10.478,-2.465c-2.86,-1.167 -6.439,-1.75 -9.068,-3.387c-6.447,-4.014 -10.035,-12.629 -10.035,-19.914" style="fill:none;stroke:#dbeef9;stroke-width:11px;"/><path d="M51.271,64.985c-0.127,0.28 -0.692,-0.441 -0.763,-0.555c-0.166,-0.263 -0.002,-0.819 -0.124,-1.134c-0.204,-0.528 -0.746,-0.139 -0.671,-0.7c0.249,-1.848 1.673,-2.497 3.064,-3.518c1.714,-1.259 2.107,-2.126 3.382,-0.448c0.716,0.943 0.473,3.422 0.473,4.588c0,4.855 -3.516,6.834 -7.57,8.829c-3.273,1.61 -7.743,2.893 -11.212,0.933c-2.304,-1.301 -4.184,-3.573 -5.519,-5.807c-3.193,-5.347 -5.747,-12.461 -4.682,-18.902c0.303,-1.827 1.297,-3.229 1.993,-4.879c0.682,-1.618 1.553,-4.222 2.743,-5.545c0.486,-0.54 1.234,-0.771 1.769,-1.253c4.119,-3.706 8.912,-6.045 14.422,-7.058c1.102,-0.202 2.329,0.212 3.418,-0.048c2.674,-0.64 5.632,-0.938 8.397,-0.682c3.2,0.295 1.377,3.581 1.377,5.378c-0,4.933 -4.105,8.179 -8.627,9.411c-1.857,0.506 -4.152,0.222 -5.116,-1.589c-0.139,-0.259 -0.847,-1.058 -0.67,-1.419c0.439,-0.898 1.58,-0.921 2.347,-1.262c1.538,-0.683 2.695,-2.282 4.239,-2.845c0.275,-0.101 -0.539,0.227 -0.806,0.347c-0.268,0.122 -0.534,0.25 -0.809,0.358c-0.914,0.357 -1.881,0.601 -2.842,0.797c-2.6,0.53 -5.229,0.683 -7.788,1.429c-0.322,0.094 -0.646,0.184 -0.963,0.296c-2.14,0.754 -0.543,2.375 -1.21,3.895c-1.801,4.106 -4.111,7.951 -3.293,12.645c0.588,3.374 2.892,5.686 4.855,8.279c0.625,0.826 0.837,1.113 1.813,1.321c0.055,0.012 0.659,0.238 0.691,0.163c0.514,-1.181 -0.025,-3.861 -0.132,-5.143c-0.312,-3.758 -0.765,-7.959 1.035,-11.442c0.774,-1.497 1.552,1.646 2.245,1.951c0.654,0.287 1.455,0.328 2.159,0.268c0.169,-0.015 1.269,-0.038 0.984,-0.038" style="fill:none;stroke:#b8dbf3;stroke-width:11px;"/><path d="M71.393,20.97c-0,0.273 -0.037,-0.569 -0.183,-0.8c-0.298,-0.468 -0.665,-0.886 -0.971,-1.364c-0.78,-1.219 -1.993,-2.837 -2.996,-3.914c-2.918,-3.134 -17.168,-8.897 -15.183,-9.049c3.978,-0.305 13.737,2.895 21.431,8.558c7.86,5.787 12.106,14.212 11.501,14.954c-0.961,1.179 -3.697,-1.087 -4.657,-2.375c-1.238,-1.661 -3.029,-2.693 -3.813,-4.714c-0.545,-1.406 -0.071,-2.978 -0.536,-4.24c-0.155,-0.419 -1.258,-0.679 -1.258,-1.066" style="fill:none;stroke:#b8dbf3;stroke-width:11px;"/><path d="M47.41,8.203c-0.956,0.027 -2.356,-0.905 -3.296,-0.817c-3.646,0.34 -7.34,1.052 -10.918,1.765c-1.223,0.243 -2.3,0.839 -3.524,1.072c-0.406,0.077 -0.824,0.107 -1.226,0.206c-0.181,0.044 -1.724,0.152 -1.538,0.152c0.871,-0 3.158,-0.598 3.99,-0.806c3.948,-0.987 7.535,-2.823 11.288,-4.336c1.049,-0.422 2.135,-0.733 3.237,-0.979c0.227,-0.051 1.718,-0.374 1.718,0.016" style="fill:none;stroke:#b8dbf3;stroke-width:4.5px;"/><path d="M90.172,40.201c0.066,0.037 -0.062,-0.45 -0.072,-0.471c-0.171,-0.373 -0.375,-0.701 -0.528,-1.086c-0.209,-0.53 -0.372,-1.14 -0.685,-1.621c-0.429,-0.656 -1.033,-0.782 -1.31,-1.661c-0.03,-0.096 0.197,-0.041 0.292,-0.075c0.163,-0.058 0.319,-0.123 0.478,-0.19c0.113,-0.048 1.237,-0.566 1.383,-0.435c0.146,0.132 -0.017,1.211 -0.022,1.376c-0.044,1.221 -0.004,2.426 0.353,3.603c0.158,0.524 0.124,1.038 0.124,1.58l0,0.529c0,0.08 0,0.323 0,0.242l0,-0.229" style="fill:none;stroke:#b8dbf3;stroke-width:4.5px;"/><path d="M35.392,94.037c8.256,0.977 14.185,1.136 20.4,0.178c9.183,-1.416 16.41,-5.513 22.865,-11.99c2.536,-2.545 4.917,-5.149 6.559,-8.363c1.297,-2.537 4.317,-7.351 4.975,-16.277" style="fill:none;stroke:#000;stroke-width:3px;"/><path d="M90.191,57.585c2.791,-12.873 2.577,-28.498 -5.006,-39.882c-14.72,-22.101 -49.099,-20.249 -66.322,-2.567" style="fill:none;stroke:#000;stroke-width:3px;"/><path d="M19.964,14.401c-4.336,3.325 -9.521,8.134 -12.408,12.823c-3.415,5.545 -5.007,12.33 -5.731,18.739c-0.685,6.067 -0.363,14.14 1.705,20.01c0.964,2.736 4.595,10.594 6.151,13.023c3.126,4.881 17.087,15.07 26.888,15.022" style="fill:none;stroke:#000;stroke-width:3px;"/><path d="M78.677,42.34c-1.218,-0.788 -2.57,-1.776 -4.028,-2.081c-4.63,-0.972 -8.126,3.514 -8.999,7.568c-1.29,5.99 4.896,15.034 11.451,14.211c1.821,-0.229 3.435,-0.896 4.985,-1.864c3.888,-2.427 8.33,-6.96 8.572,-11.886c0.155,-3.132 -1.715,-5.853 -3.345,-8.364c-3.163,-4.876 -5.43,-6.739 -10.207,-10.053c-2.319,-1.61 -6.86,-4.055 -9.711,-4.583" style="fill:none;stroke:#000;stroke-width:2.5px;"/><path d="M48.778,34.903c-1.695,0.295 -3.296,0.572 -4.661,1.687c-3.954,3.227 -1.21,8.722 2.347,11.035c2.033,1.322 4.564,1.614 6.935,1.391c7.245,-0.682 12.422,-5.796 14.021,-12.816c0.712,-3.13 0.83,-6.412 -0.084,-9.513c-0.611,-2.072 -1.572,-4.001 -2.825,-5.76c-1.531,-2.15 -3.251,-4.288 -5.401,-5.854c-4.703,-3.425 -11.118,-4.083 -16.745,-4.333c-6.038,-0.268 -11.327,0.054 -17.07,1.905c-4.022,1.296 -6.774,2.473 -9.932,5.368" style="fill:none;stroke:#000;stroke-width:2.5px;"/><path d="M50.681,66.83c-3.561,0.203 -8.462,-2.564 -7.097,-6.855c0.461,-1.447 1.699,-2.969 2.625,-4.124c3.86,-4.815 11.78,-8.047 15.211,-0.584c2.991,6.503 1.144,14.463 -4.43,18.89c-3.251,2.581 -7.321,3.701 -11.352,4.335c-3.231,0.509 -6.633,0.976 -9.711,-0.425c-9.571,-4.357 -15.575,-17.233 -14.724,-27.4c0.369,-4.408 2.166,-8.671 4.378,-12.462c1.226,-2.1 6.904,-8.127 9.145,-9.179c7.498,-3.523 13.161,-6.023 31.114,-4.038" style="fill:none;stroke:#000;stroke-width:2.5px;"/></g></g></svg>