<?xml version="1.0" encoding="UTF-8" standalone="no"?>
<!DOCTYPE svg PUBLIC "-//W3C//DTD SVG 1.1//EN" "http://www.w3.org/Graphics/SVG/1.1/DTD/svg11.dtd">
<svg width="100%" height="100%" viewBox="0 0 15 15" version="1.1" xmlns="http://www.w3.org/2000/svg" xmlns:xlink="http://www.w3.org/1999/xlink" xml:space="preserve" xmlns:serif="http://www.serif.com/" style="fill-rule:evenodd;clip-rule:evenodd;stroke-miterlimit:10;">
    <g transform="matrix(1,0,0,1,-162.981,-41.161)">
        <g transform="matrix(-0.0833619,-0.996519,-0.996519,0.0833619,170.07,46.6418)">
            <ellipse cx="-1.955" cy="-0.163" rx="1.993" ry="1.962" style="fill:none;stroke:rgb(219,200,123);stroke-width:0.45px;"/>
        </g>
        <g transform="matrix(1,0,0,1,169.989,46.7292)">
            <path d="M0,-3.307C0.039,-2.853 0.052,-2.297 -0.013,-1.668C-0.08,-1.012 -0.213,-0.449 -0.351,0" style="fill:none;fill-rule:nonzero;stroke:rgb(219,200,123);stroke-width:0.45px;"/>
        </g>
        <g transform="matrix(1,0,0,1,169.989,46.6398)">
            <path d="M0,-3.203C0.037,-2.749 0.117,-2.199 0.285,-1.589C0.461,-0.953 0.686,-0.42 0.896,0" style="fill:none;fill-rule:nonzero;stroke:rgb(219,200,123);stroke-width:0.45px;"/>
        </g>
        <g transform="matrix(1,0,0,1,175.462,47.7875)">
            <path d="M0,0.333C-0.454,0.369 -1.01,0.377 -1.639,0.307C-2.295,0.235 -2.856,0.097 -3.304,-0.044" style="fill:none;fill-rule:nonzero;stroke:rgb(219,200,123);stroke-width:0.45px;"/>
        </g>
        <g transform="matrix(1,0,0,1,175.447,48.9914)">
            <path d="M0,-0.871C-0.455,-0.838 -1.005,-0.762 -1.616,-0.598C-2.253,-0.428 -2.788,-0.207 -3.21,0" style="fill:none;fill-rule:nonzero;stroke:rgb(219,200,123);stroke-width:0.45px;"/>
        </g>
        <g transform="matrix(1,0,0,1,170.803,50.3519)">
            <path d="M0,3.305C-0.036,2.851 -0.044,2.295 0.025,1.666C0.097,1.01 0.235,0.448 0.376,0" style="fill:none;fill-rule:nonzero;stroke:rgb(219,200,123);stroke-width:0.45px;"/>
        </g>
        <g transform="matrix(1,0,0,1,170.803,50.4333)">
            <path d="M0,3.209C-0.033,2.754 -0.109,2.204 -0.273,1.593C-0.444,0.956 -0.665,0.421 -0.872,0" style="fill:none;fill-rule:nonzero;stroke:rgb(219,200,123);stroke-width:0.45px;"/>
        </g>
        <g transform="matrix(1,0,0,1,165.242,49.2518)">
            <path d="M0,-0.299C0.454,-0.338 1.01,-0.351 1.639,-0.286C2.295,-0.219 2.858,-0.086 3.307,0.052" style="fill:none;fill-rule:nonzero;stroke:rgb(219,200,123);stroke-width:0.45px;"/>
        </g>
        <g transform="matrix(1,0,0,1,165.257,48.0568)">
            <path d="M0,0.896C0.454,0.859 1.004,0.779 1.614,0.611C2.25,0.435 2.783,0.21 3.203,0" style="fill:none;fill-rule:nonzero;stroke:rgb(219,200,123);stroke-width:0.45px;"/>
        </g>
    </g>
</svg>
