<?xml version="1.0" encoding="UTF-8"?><svg id="Layer_1" xmlns="http://www.w3.org/2000/svg" viewBox="0 0 512 512"><circle cx="256" cy="256" r="256" fill="#f0f0f0"/><g><path d="M52.9,100.1c-20.1,26.2-35.3,56.3-44.1,89.1H142L52.9,100.1Z" fill="#0052b4"/><path d="M503.2,189.2c-8.8-32.8-24-62.9-44.1-89.1l-89.1,89.1h133.2Z" fill="#0052b4"/><path d="M8.8,322.8c8.8,32.8,24,62.9,44.1,89.1l89.1-89.1H8.8Z" fill="#0052b4"/><path d="M411.9,52.9c-26.2-20.1-56.3-35.3-89.1-44.1V142l89.1-89.1Z" fill="#0052b4"/><path d="M100.1,459.1c26.2,20.1,56.3,35.3,89.1,44.1v-133.2l-89.1,89.1Z" fill="#0052b4"/><path d="M189.2,8.8c-32.8,8.8-62.9,24-89.1,44.1l89.1,89.1V8.8Z" fill="#0052b4"/><path d="M322.8,503.2c32.8-8.8,62.9-24,89.1-44.1l-89.1-89.1v133.2Z" fill="#0052b4"/><path d="M370,322.8l89.1,89.1c20.1-26.2,35.3-56.3,44.1-89.1h-133.2Z" fill="#0052b4"/></g><g><path d="M509.8,222.6h-220.4V2.2C278.5,.7,267.3,0,256,0s-22.5,.7-33.4,2.2V222.6h0s-220.4,0-220.4,0C.7,233.5,0,244.7,0,256s.7,22.5,2.2,33.4H222.6v220.4c10.9,1.4,22.1,2.2,33.4,2.2s22.5-.7,33.4-2.2v-220.4h0s220.4,0,220.4,0c1.4-10.9,2.2-22.1,2.2-33.4s-.7-22.5-2.2-33.4h0Z" fill="#d80027"/><path d="M322.8,322.8l114.2,114.2c5.3-5.3,10.3-10.7,15-16.4l-97.8-97.8h-31.5Z" fill="#d80027"/><path d="M189.2,322.8h0l-114.2,114.2c5.3,5.3,10.7,10.3,16.4,15l97.8-97.8v-31.5Z" fill="#d80027"/><path d="M189.2,189.2h0S75,75,75,75c-5.3,5.3-10.3,10.7-15,16.4l97.8,97.8h31.5Z" fill="#d80027"/><path d="M322.8,189.2l114.2-114.2c-5.3-5.3-10.7-10.3-16.4-15l-97.8,97.8v31.5Z" fill="#d80027"/></g></svg>