<?xml version="1.0" encoding="UTF-8" standalone="no"?>
<!DOCTYPE svg PUBLIC "-//W3C//DTD SVG 1.1//EN" "http://www.w3.org/Graphics/SVG/1.1/DTD/svg11.dtd">
<svg width="100%" height="100%" viewBox="0 0 24 24" version="1.1" xmlns="http://www.w3.org/2000/svg" xmlns:xlink="http://www.w3.org/1999/xlink" xml:space="preserve" xmlns:serif="http://www.serif.com/" style="fill-rule:evenodd;clip-rule:evenodd;stroke-linejoin:round;stroke-miterlimit:2;">
    <g transform="matrix(1,0,0,1,-3,-3)">
        <path d="M15,3C8.373,3 3,8.373 3,15C3,21.016 7.432,25.984 13.206,26.852L13.206,18.18L10.237,18.18L10.237,15.026L13.206,15.026L13.206,12.927C13.206,9.452 14.899,7.927 17.787,7.927C19.17,7.927 19.902,8.03 20.248,8.076L20.248,10.829L18.278,10.829C17.052,10.829 16.624,11.992 16.624,13.302L16.624,15.026L20.217,15.026L19.73,18.18L16.624,18.18L16.624,26.877C22.481,26.083 27,21.075 27,15C27,8.373 21.627,3 15,3Z" style="fill:rgb(112,86,66);fill-rule:nonzero;"/>
    </g>
</svg>
