<?xml version="1.0" encoding="UTF-8" standalone="no"?>
<!DOCTYPE svg PUBLIC "-//W3C//DTD SVG 1.1//EN" "http://www.w3.org/Graphics/SVG/1.1/DTD/svg11.dtd">
<svg width="100%" height="100%" viewBox="0 0 43 34" version="1.1" xmlns="http://www.w3.org/2000/svg" xmlns:xlink="http://www.w3.org/1999/xlink" xml:space="preserve" xmlns:serif="http://www.serif.com/" style="fill-rule:evenodd;clip-rule:evenodd;stroke-miterlimit:10;">
    <g transform="matrix(1,0,0,1,-5.72234e-05,-5.80437e-06)">
        <g transform="matrix(1,0,0,1,-13.6841,-167.397)">
            <g transform="matrix(-0.973733,0.227694,0.227694,0.973733,58.7174,189.834)">
                <path d="M0,-20.462C4.515,-14.032 10.049,-8.313 17.196,-4.969C25.335,-1.203 34.509,0 43.267,-1.714" style="fill:none;fill-rule:nonzero;stroke:rgb(112,86,66);stroke-width:0.5px;"/>
            </g>
            <g transform="matrix(-0.973733,0.227694,0.227694,0.973733,50.6744,178.843)">
                <path d="M0,-1.397C1.485,-0.661 2.935,-1.502 4.426,-1.726C6.165,-1.988 7.876,-1.299 9.342,-0.424L9.342,-0.812C8.622,-0.474 7.892,-0.046 7.122,0.165C6.341,0.38 5.463,0.346 4.662,0.29C3.288,0.194 1.272,-0.093 0.467,-1.372C0.313,-1.617 -0.077,-1.391 0.078,-1.145C0.929,0.208 2.853,0.564 4.322,0.711C5.217,0.8 6.185,0.838 7.068,0.642C7.943,0.448 8.765,-0.045 9.569,-0.424C9.727,-0.498 9.704,-0.732 9.569,-0.812C8.24,-1.605 6.742,-2.235 5.171,-2.23C3.557,-2.226 1.787,-1.013 0.227,-1.786C-0.032,-1.914 -0.26,-1.526 0,-1.397" style="fill:rgb(112,86,66);fill-rule:nonzero;"/>
            </g>
            <g transform="matrix(-0.973733,0.227694,0.227694,0.973733,50.8168,184.099)">
                <path d="M0,-5.097C0.282,-4.541 0.65,-3.971 0.795,-3.359C0.935,-2.77 0.952,-2.153 1.084,-1.559C1.32,-0.492 1.775,0.532 2.584,1.289C2.675,1.171 2.766,1.053 2.857,0.936C2.156,0.627 1.44,0.306 0.795,-0.109C0.098,-0.557 -0.268,-1.21 -0.554,-1.968C-0.83,-2.701 -1.09,-3.418 -0.833,-4.196C-0.609,-4.875 -0.247,-5.514 -0.487,-6.243C-0.577,-6.517 -1.011,-6.399 -0.921,-6.123C-0.652,-5.307 -1.305,-4.565 -1.393,-3.772C-1.478,-2.996 -1.143,-2.205 -0.851,-1.503C-0.58,-0.848 -0.215,-0.28 0.365,0.141C1.048,0.636 1.861,0.986 2.63,1.324C2.846,1.42 3.104,1.16 2.902,0.971C2.044,0.167 1.641,-0.939 1.439,-2.074C1.339,-2.637 1.336,-3.239 1.138,-3.78C0.942,-4.315 0.646,-4.818 0.389,-5.324C0.258,-5.582 -0.131,-5.355 0,-5.097" style="fill:rgb(112,86,66);fill-rule:nonzero;"/>
            </g>
            <g transform="matrix(-0.973733,0.227694,0.227694,0.973733,44.7991,184.433)">
                <path d="M0,0.367C1.189,-0.538 2.919,-1.011 4.393,-0.756C5.796,-0.513 7.027,0.658 8.511,0.304C8.426,0.194 8.342,0.084 8.257,-0.026C8.206,0.091 7.795,0.172 7.683,0.21C7.537,0.261 7.39,0.311 7.242,0.357C6.902,0.463 6.561,0.543 6.211,0.608C5.58,0.724 5.005,1.008 4.375,1.13C3.647,1.271 2.892,1.24 2.189,0.997C1.495,0.756 0.838,0.379 0.18,0.057C-0.079,-0.07 -0.308,0.318 -0.047,0.445C0.668,0.795 1.382,1.205 2.14,1.454C2.875,1.695 3.663,1.715 4.42,1.579C4.811,1.509 5.18,1.383 5.551,1.248C5.901,1.12 6.252,1.065 6.614,0.989C7.044,0.898 7.463,0.764 7.876,0.619C8.13,0.529 8.526,0.473 8.645,0.201C8.722,0.025 8.596,-0.179 8.391,-0.13C7.517,0.078 6.731,-0.368 5.96,-0.717C5.286,-1.023 4.592,-1.225 3.851,-1.268C2.476,-1.348 0.872,-0.858 -0.227,-0.022C-0.455,0.152 -0.231,0.542 0,0.367" style="fill:rgb(112,86,66);fill-rule:nonzero;"/>
            </g>
            <g transform="matrix(-0.973733,0.227694,0.227694,0.973733,45.6111,191.854)">
                <path d="M0,-5.836C0.66,-5.509 1.242,-5.056 1.707,-4.484C2.189,-3.892 2.417,-3.193 2.773,-2.531C3.473,-1.227 4.608,-0.233 5.709,0.724L5.928,0.348C5.089,0.12 4.266,-0.165 3.472,-0.519C2.727,-0.851 1.873,-1.21 1.291,-1.796C0.739,-2.352 0.361,-3.239 0.106,-3.969C-0.032,-4.366 -0.127,-4.778 -0.127,-5.2C-0.128,-5.603 -0.066,-5.99 -0.148,-6.39C-0.206,-6.674 -0.639,-6.554 -0.582,-6.271C-0.489,-5.82 -0.606,-5.357 -0.563,-4.901C-0.524,-4.481 -0.416,-4.072 -0.265,-3.679C0.024,-2.924 0.395,-2.06 0.973,-1.478C1.573,-0.874 2.422,-0.501 3.187,-0.156C4.035,0.226 4.911,0.538 5.809,0.782C6.016,0.838 6.202,0.558 6.027,0.406C4.869,-0.6 3.67,-1.646 3.009,-3.063C2.697,-3.731 2.41,-4.362 1.922,-4.925C1.451,-5.468 0.87,-5.906 0.227,-6.225C-0.032,-6.353 -0.26,-5.965 0,-5.836" style="fill:rgb(112,86,66);fill-rule:nonzero;"/>
            </g>
            <g transform="matrix(-0.973733,0.227694,0.227694,0.973733,35.9619,196.892)">
                <path d="M0,-3.884C1.8,-3.702 2.811,-1.825 4.061,-0.744C5.176,0.22 6.601,1.201 8.127,1.223C8.421,1.227 8.412,0.797 8.127,0.773C7.05,0.683 5.975,0.564 4.905,0.408C3.929,0.265 2.892,0.156 1.969,-0.212C1,-0.598 0.522,-1.286 0.094,-2.2C-0.342,-3.13 -0.85,-4.02 -1.424,-4.872C-1.585,-5.111 -1.975,-4.886 -1.812,-4.645C-1.187,-3.718 -0.659,-2.746 -0.185,-1.735C0.22,-0.871 0.776,-0.246 1.659,0.143C2.605,0.56 3.678,0.678 4.692,0.828C5.833,0.997 6.978,1.127 8.127,1.223L8.127,0.773C6.427,0.749 4.766,-0.593 3.644,-1.762C2.589,-2.861 1.632,-4.169 0,-4.334C-0.288,-4.363 -0.286,-3.913 0,-3.884" style="fill:rgb(112,86,66);fill-rule:nonzero;"/>
            </g>
            <g transform="matrix(-0.973733,0.227694,0.227694,0.973733,30.2358,192.578)">
                <path d="M0,2.357C1.241,2.515 2.471,2.736 3.718,2.517C4.286,2.417 4.835,2.239 5.357,1.996C5.953,1.72 6.512,1.353 7.188,1.327C7.431,1.318 7.507,0.939 7.248,0.885C5.548,0.528 3.93,-0.234 2.18,-0.336C1.455,-0.379 0.686,-0.309 0.039,0.048C-0.723,0.468 -1.333,1.249 -1.951,1.85C-2.16,2.052 -1.841,2.37 -1.633,2.168C-1.051,1.602 -0.452,0.832 0.266,0.436C0.935,0.068 1.755,0.061 2.494,0.14C4.085,0.309 5.57,0.992 7.128,1.319C7.148,1.171 7.168,1.024 7.188,0.877C6.639,0.898 6.156,1.099 5.669,1.34C5.098,1.623 4.535,1.878 3.91,2.02C2.605,2.317 1.305,2.073 0,1.907C-0.286,1.871 -0.284,2.321 0,2.357" style="fill:rgb(112,86,66);fill-rule:nonzero;"/>
            </g>
            <g transform="matrix(-0.973733,0.227694,0.227694,0.973733,39.1031,187.572)">
                <path d="M0,2.477C1.355,2.758 2.645,2.936 3.967,2.416C4.571,2.178 5.152,1.892 5.779,1.714C6.467,1.517 7.17,1.428 7.885,1.427C8.153,1.427 8.171,1.073 7.945,0.985C7.207,0.698 6.6,0.163 5.867,-0.134C5.167,-0.418 4.373,-0.459 3.649,-0.238C2.276,0.182 1.364,1.411 0.06,1.967C-0.206,2.08 0.023,2.468 0.287,2.355C1.519,1.83 2.386,0.677 3.655,0.233C4.407,-0.03 5.22,0.038 5.932,0.386C6.581,0.705 7.147,1.155 7.825,1.419C7.845,1.272 7.865,1.124 7.885,0.977C6.617,0.978 5.459,1.295 4.301,1.792C3.658,2.068 3.02,2.304 2.311,2.324C1.571,2.344 0.841,2.193 0.12,2.043C-0.163,1.984 -0.284,2.418 0,2.477" style="fill:rgb(112,86,66);fill-rule:nonzero;"/>
            </g>
        </g>
    </g>
</svg>
