<?xml version="1.0" encoding="UTF-8" standalone="no"?>
<!DOCTYPE svg PUBLIC "-//W3C//DTD SVG 1.1//EN" "http://www.w3.org/Graphics/SVG/1.1/DTD/svg11.dtd">
<svg width="100%" height="100%" viewBox="0 0 22 24" version="1.1" xmlns="http://www.w3.org/2000/svg" xmlns:xlink="http://www.w3.org/1999/xlink" xml:space="preserve" xmlns:serif="http://www.serif.com/" style="fill-rule:evenodd;clip-rule:evenodd;stroke-miterlimit:10;">
    <g transform="matrix(1,0,0,1,-8.53437,-220.818)">
        <g transform="matrix(1,0,0,1,25.4057,239.88)">
            <path d="M0,-15.128C-2.498,-16.875 -5.846,-17.298 -8.69,-16.188C-11.315,-15.164 -13.342,-12.873 -14.186,-10.201C-15.106,-7.288 -14.498,-4.03 -12.665,-1.597C-10.867,0.788 -7.953,2.17 -4.968,2.05C-2.165,1.938 0.495,0.513 2.145,-1.756C2.348,-2.036 2.536,-2.328 2.707,-2.629" style="fill:none;fill-rule:nonzero;stroke:rgb(219,200,123);stroke-width:0.45px;"/>
        </g>
        <g transform="matrix(1,0,0,1,25.3808,237.85)">
            <path d="M0,-13.071C-2.898,-12.839 -5.283,-10.536 -5.744,-7.689C-6.212,-4.794 -4.674,-1.847 -1.972,-0.669C-0.503,-0.029 1.177,0 2.674,-0.562" style="fill:none;fill-rule:nonzero;stroke:rgb(219,200,123);stroke-width:0.45px;"/>
        </g>
    </g>
</svg>
