<?xml version="1.0" encoding="UTF-8" standalone="no"?>
<!DOCTYPE svg PUBLIC "-//W3C//DTD SVG 1.1//EN" "http://www.w3.org/Graphics/SVG/1.1/DTD/svg11.dtd">
<svg width="100%" height="100%" viewBox="0 0 28 28" version="1.1" xmlns="http://www.w3.org/2000/svg" xmlns:xlink="http://www.w3.org/1999/xlink" xml:space="preserve" xmlns:serif="http://www.serif.com/" style="fill-rule:evenodd;clip-rule:evenodd;stroke-miterlimit:10;">
    <g transform="matrix(1,0,0,1,-212.049,-16.1097)">
        <g transform="matrix(-0.78166,-0.623704,-0.623704,0.78166,221.68,31.0981)">
            <ellipse cx="-2.803" cy="-3.514" rx="4.567" ry="4.495" style="fill:none;stroke:rgb(219,200,123);stroke-width:0.45px;"/>
        </g>
        <g transform="matrix(1,0,0,1,216.837,28.4562)">
            <path d="M0,-5.79C0.818,-5.141 1.764,-4.287 2.71,-3.19C3.698,-2.044 4.426,-0.936 4.957,0" style="fill:none;fill-rule:nonzero;stroke:rgb(219,200,123);stroke-width:0.45px;"/>
        </g>
        <g transform="matrix(1,0,0,1,216.862,26.2362)">
            <path d="M0,-3.547C0.815,-2.893 1.858,-2.161 3.137,-1.482C4.473,-0.774 5.715,-0.31 6.746,0" style="fill:none;fill-rule:nonzero;stroke:rgb(219,200,123);stroke-width:0.45px;"/>
        </g>
        <g transform="matrix(1,0,0,1,233.278,25.8537)">
            <path d="M0,-4.911C-0.655,-4.098 -1.517,-3.159 -2.621,-2.222C-3.775,-1.243 -4.888,-0.523 -5.829,0" style="fill:none;fill-rule:nonzero;stroke:rgb(219,200,123);stroke-width:0.45px;"/>
        </g>
        <g transform="matrix(1,0,0,1,233.254,27.6849)">
            <path d="M0,-6.718C-0.66,-5.909 -1.4,-4.871 -2.089,-3.597C-2.808,-2.267 -3.282,-1.028 -3.6,0" style="fill:none;fill-rule:nonzero;stroke:rgb(219,200,123);stroke-width:0.45px;"/>
        </g>
        <g transform="matrix(1,0,0,1,235.168,31.5904)">
            <path d="M0,5.827C-0.813,5.172 -1.752,4.31 -2.69,3.206C-3.669,2.054 -4.389,0.94 -4.913,0" style="fill:none;fill-rule:nonzero;stroke:rgb(219,200,123);stroke-width:0.45px;"/>
        </g>
        <g transform="matrix(1,0,0,1,235.144,33.7962)">
            <path d="M0,3.598C-0.81,2.938 -1.847,2.198 -3.122,1.51C-4.452,0.791 -5.691,0.318 -6.719,0" style="fill:none;fill-rule:nonzero;stroke:rgb(219,200,123);stroke-width:0.45px;"/>
        </g>
        <g transform="matrix(1,0,0,1,218.582,34.3209)">
            <path d="M0,4.956C0.649,4.138 1.504,3.192 2.6,2.246C3.746,1.259 4.854,0.53 5.79,0" style="fill:none;fill-rule:nonzero;stroke:rgb(219,200,123);stroke-width:0.45px;"/>
        </g>
        <g transform="matrix(1,0,0,1,218.604,32.5065)">
            <path d="M0,6.746C0.654,5.931 1.386,4.888 2.065,3.609C2.774,2.273 3.238,1.031 3.548,0" style="fill:none;fill-rule:nonzero;stroke:rgb(219,200,123);stroke-width:0.45px;"/>
        </g>
        <g transform="matrix(-0.113459,-0.993543,-0.993543,0.113459,225.075,25.7696)">
            <ellipse cx="-4.466" cy="-0.51" rx="4.567" ry="4.495" style="fill:none;stroke:rgb(219,200,123);stroke-width:0.45px;"/>
        </g>
        <g transform="matrix(1,0,0,1,224.8,25.9709)">
            <path d="M0,-7.6C0.122,-6.563 0.188,-5.29 0.084,-3.845C-0.025,-2.337 -0.291,-1.038 -0.576,0" style="fill:none;fill-rule:nonzero;stroke:rgb(219,200,123);stroke-width:0.45px;"/>
        </g>
        <g transform="matrix(1,0,0,1,224.801,25.6794)">
            <path d="M0,-7.275C0.115,-6.237 0.338,-4.982 0.765,-3.598C1.211,-2.153 1.763,-0.948 2.275,0" style="fill:none;fill-rule:nonzero;stroke:rgb(219,200,123);stroke-width:0.45px;"/>
        </g>
        <g transform="matrix(1,0,0,1,237.662,28.2892)">
            <path d="M0,0.466C-1.038,0.579 -2.311,0.636 -3.755,0.52C-5.263,0.4 -6.56,0.123 -7.595,-0.17" style="fill:none;fill-rule:nonzero;stroke:rgb(219,200,123);stroke-width:0.45px;"/>
        </g>
        <g transform="matrix(1,0,0,1,237.628,30.9739)">
            <path d="M0,-2.218C-1.039,-2.111 -2.295,-1.898 -3.683,-1.482C-5.131,-1.047 -6.341,-0.505 -7.292,0" style="fill:none;fill-rule:nonzero;stroke:rgb(219,200,123);stroke-width:0.45px;"/>
        </g>
        <g transform="matrix(1,0,0,1,227.372,34.1633)">
            <path d="M0,7.596C-0.114,6.558 -0.171,5.285 -0.056,3.841C0.064,2.333 0.34,1.036 0.633,0" style="fill:none;fill-rule:nonzero;stroke:rgb(219,200,123);stroke-width:0.45px;"/>
        </g>
        <g transform="matrix(1,0,0,1,227.371,34.4338)">
            <path d="M0,7.292C-0.108,6.253 -0.32,4.997 -0.737,3.61C-1.172,2.161 -1.715,0.951 -2.22,0" style="fill:none;fill-rule:nonzero;stroke:rgb(219,200,123);stroke-width:0.45px;"/>
        </g>
        <g transform="matrix(1,0,0,1,214.31,31.757)">
            <path d="M0,-0.389C1.037,-0.51 2.31,-0.577 3.755,-0.473C5.263,-0.364 6.562,-0.097 7.6,0.188" style="fill:none;fill-rule:nonzero;stroke:rgb(219,200,123);stroke-width:0.45px;"/>
        </g>
        <g transform="matrix(1,0,0,1,214.344,29.093)">
            <path d="M0,2.274C1.038,2.159 2.293,1.937 3.677,1.509C5.122,1.063 6.328,0.511 7.275,0" style="fill:none;fill-rule:nonzero;stroke:rgb(219,200,123);stroke-width:0.45px;"/>
        </g>
    </g>
</svg>
